<svg width="138" height="138" viewBox="0 0 138 138" fill="none" xmlns="http://www.w3.org/2000/svg">
<path d="M137.998 1C137.998 0.447716 137.55 0 136.998 0H1C0.447718 0 0 0.447715 0 1V29.7625C0 30.3148 0.447715 30.7625 1 30.7625H136.998C137.55 30.7625 137.998 30.3148 137.998 29.7625V1Z" fill="#E95B3C"/>
<path d="M42.6592 36.075C42.6592 35.5227 42.2114 35.075 41.6592 35.075H1C0.447715 35.075 0 35.5227 0 36.075V137C0 137.552 0.447715 138 1 138H41.6592C42.2114 138 42.6592 137.552 42.6592 137V36.075Z" fill="#E95B3C"/>
<path d="M136.997 75.0374C137.549 75.0374 137.997 74.5897 137.997 74.0374V58.2124C137.997 57.6601 137.549 57.2124 136.997 57.2124H48.5254C47.9731 57.2124 47.5254 57.6601 47.5254 58.2124V74.0374C47.5254 74.5897 47.9731 75.0374 48.5254 75.0374H136.997Z" fill="#E95B3C"/>
<path d="M136.997 52.9C137.549 52.9 137.997 52.4522 137.997 51.9V36.075C137.997 35.5227 137.549 35.075 136.997 35.075H48.5254C47.9731 35.075 47.5254 35.5227 47.5254 36.075V51.9C47.5254 52.4522 47.9731 52.9 48.5254 52.9H136.997Z" fill="#4047E3"/>
<path d="M112.23 80.6372C112.23 80.0849 111.783 79.6372 111.23 79.6372H74.0068C73.4546 79.6372 73.0068 80.0849 73.0068 80.6372V137C73.0068 137.552 73.4546 138 74.0068 138H111.23C111.783 138 112.23 137.552 112.23 137V80.6372Z" fill="#E95B3C"/>
<path d="M66.8529 138C67.4052 138 67.8529 137.552 67.8529 137V80.6372C67.8529 80.0849 67.4052 79.6372 66.8529 79.6372H48.5254C47.9731 79.6372 47.5254 80.0849 47.5254 80.6372V137C47.5254 137.552 47.9731 138 48.5254 138H66.8529Z" fill="#4047E3"/>
<path d="M137 138C137.552 138 138 137.552 138 137V80.6372C138 80.0849 137.552 79.6372 137 79.6372H118.386C117.833 79.6372 117.386 80.0849 117.386 80.6372V137C117.386 137.552 117.833 138 118.386 138H137Z" fill="#4047E3"/>
</svg>
